<svg xmlns="http://www.w3.org/2000/svg" viewBox="0 0 1000 1000"><defs><style>.cls-1{fill:#231f20;}.cls-2{fill:#fff;}</style></defs><g id="Layer_2" data-name="Layer 2"><g id="Layer_1-2" data-name="Layer 1"><rect class="cls-1" width="1000" height="1000"/><path class="cls-2" d="M184.54,546.23h-9.38V457.34a3.2,3.2,0,0,1,3-3.57h6.34v33.68L196.16,454h9.91l-14.93,41.6,16,50.59h-9.9l-12.68-41.34Z"/><path class="cls-2" d="M271.58,512.42c0-4.49-2.38-5.95-4.89-5.95h-5v39.76h-9.51V453.77h17.3a11.65,11.65,0,0,1,11.63,11.63v28.52s.39,7.27-3.44,8.19c3.7,1.85,3.44,8.72,3.44,8.72v35.4h-9.51Zm-4.89-14.93c2.51,0,4.89-1.06,4.89-5.28V467.38c0-3.44-2.38-4.76-4.89-4.76h-5v34.87Z"/><path class="cls-2" d="M340.78,546.23a2.88,2.88,0,0,1-2.77-2.78V507.79l-11.36-54h7c.26,0,2.64.13,3,3.17l6.07,35,6.08-35c.4-3,2.77-3.17,3-3.17h7l-11.36,54v38.44Z"/><path class="cls-2" d="M422.54,452.85A11.9,11.9,0,0,1,434,464.6v70.93a11.87,11.87,0,0,1-11.49,11.62h-7.27a12,12,0,0,1-11.88-11.62V464.6a11.8,11.8,0,0,1,11.88-11.75Zm-3.17,86a5,5,0,0,0,5-5.15V466.32a5,5,0,0,0-5-5.15h-1.46a5.21,5.21,0,0,0-5,5.15v67.36a5.21,5.21,0,0,0,5,5.15Z"/><path class="cls-2" d="M503,477v-10.7a5,5,0,1,0-10,0v8.85c0,5.41,4.1,12.41,4.1,12.41L508.39,509c4.62,8.46,4.22,14.66,4.22,14.66V535.4a11.8,11.8,0,0,1-11.88,11.75h-6a12,12,0,0,1-11.49-11.75v-9.51c0-3,1.45-4.49,2.64-5.15.8-.27,4.63-2,7-3v16.11a5,5,0,1,0,10-.13V523.11c0-5.41-4.09-12.54-4.09-12.54L487.52,489.3c-4.62-8.45-4.23-14.66-4.23-14.66v-9.51c0-6.47,5.28-12.28,11.89-12.28h5.94c6.34.13,11.49,5.94,11.49,12.28v3.57c0,3-1.45,4.49-2.64,5.15C509.18,474.24,505.48,476,503,477Z"/><path class="cls-2" d="M596.35,536.85c-1.06,2.38-2.64,6.08-3,6.87-.66,1.19-2.11,2.51-5.15,2.51H565.44V453.77h6.61a3,3,0,0,1,2.9,2.91v80.17Z"/><path class="cls-2" d="M668.46,536.85c-1.05,2.38-2.64,6.08-3,6.87-.66,1.19-2.11,2.51-5.15,2.51H639.14V456.41a2.89,2.89,0,0,1,2.91-2.64h24.7l-3.17,6.87c-.53,1.19-2,2.64-5,2.64H650.9a2.15,2.15,0,0,0-2.25,2.25V493h14.27c-1.06,2.38-2.65,6.21-3,7-.66,1.19-2,2.51-5,2.51h-4a2.32,2.32,0,0,0-2.25,2.25v32.09Z"/><path class="cls-2" d="M747.71,536.85c-1.06,2.38-2.64,6.08-3,6.87-.66,1.19-2.11,2.51-5.15,2.51H718.39V456.41a2.89,2.89,0,0,1,2.9-2.64H746l-3.17,6.87c-.53,1.19-2,2.64-5,2.64h-7.66a2.15,2.15,0,0,0-2.24,2.25V493h14.26c-1.06,2.38-2.64,6.21-3,7-.66,1.19-2,2.51-5,2.51h-4a2.31,2.31,0,0,0-2.24,2.25v32.09Z"/><path class="cls-2" d="M812.82,453.77c6.34,0,12,5.15,12,11.63v23.9c0,9-4.36,15.46-13.47,15.46h-5.68v41.47H799c-2.24,0-2.64-1.32-2.64-2V453.77Zm2.91,13.34a5,5,0,0,0-5-4.49h-5v33.29h5a5,5,0,0,0,5-4.5Z"/></g></g></svg>