<svg xmlns="http://www.w3.org/2000/svg" viewBox="0 0 649.68 94.31"><defs><style>.cls-1{fill:#231f20;}</style></defs><g id="Layer_2" data-name="Layer 2"><g id="Layer_1-2" data-name="Layer 1"><path class="cls-1" d="M9.38,93.38H0V4.49A3.2,3.2,0,0,1,3,.92H9.38V34.61L21,1.19h9.91L16,42.79,32,93.38h-9.9L9.38,52Z"/><path class="cls-1" d="M96.42,59.57c0-4.49-2.38-6-4.89-6h-5V93.38H77V.92H94.3a11.64,11.64,0,0,1,11.62,11.63V41.08s.4,7.26-3.43,8.19c3.7,1.85,3.43,8.71,3.43,8.71v35.4h-9.5ZM91.53,44.64c2.51,0,4.89-1,4.89-5.28V14.53c0-3.44-2.38-4.76-4.89-4.76h-5V44.64Z"/><path class="cls-1" d="M165.62,93.38a2.88,2.88,0,0,1-2.77-2.77V55L151.49.92h7c.26,0,2.64.14,3,3.17l6.07,35,6.08-35c.4-3,2.77-3.17,3-3.17h7L172.36,55V93.38Z"/><path class="cls-1" d="M247.38,0a11.91,11.91,0,0,1,11.49,11.76V82.68a11.89,11.89,0,0,1-11.49,11.63h-7.27a12,12,0,0,1-11.88-11.63V11.76A11.81,11.81,0,0,1,240.11,0Zm-3.17,86a5,5,0,0,0,5-5.15V13.47a5.05,5.05,0,0,0-5-5.15h-1.46a5.21,5.21,0,0,0-5,5.15V80.83a5.21,5.21,0,0,0,5,5.15Z"/><path class="cls-1" d="M327.81,24.17V13.47a5,5,0,1,0-10,0v8.85c0,5.42,4.1,12.42,4.1,12.42l11.36,21.39c4.62,8.46,4.22,14.66,4.22,14.66V82.55a11.81,11.81,0,0,1-11.88,11.76h-5.95a12,12,0,0,1-11.49-11.76V73c0-3,1.45-4.49,2.64-5.15.8-.27,4.63-2,7-3V81a5,5,0,1,0,10-.13V70.27c0-5.42-4.09-12.55-4.09-12.55L312.36,36.45c-4.63-8.45-4.23-14.66-4.23-14.66V12.28C308.13,5.81,313.41,0,320,0H326c6.34.13,11.49,5.94,11.49,12.28v3.57c0,3-1.45,4.49-2.64,5.15C334,21.4,330.32,23.11,327.81,24.17Z"/><path class="cls-1" d="M421.19,84c-1.06,2.38-2.64,6.08-3,6.87-.66,1.19-2.11,2.51-5.15,2.51H390.28V.92h6.61a3,3,0,0,1,2.9,2.91V84Z"/><path class="cls-1" d="M493.3,84c-1.05,2.38-2.64,6.08-3,6.87-.66,1.19-2.11,2.51-5.15,2.51H464V3.57A2.89,2.89,0,0,1,466.89.92h24.69l-3.16,6.87c-.53,1.19-2,2.64-5,2.64h-7.66a2.15,2.15,0,0,0-2.25,2.25V40.15h14.26c-1.05,2.38-2.64,6.21-3,7-.66,1.19-2,2.51-5,2.51h-4a2.32,2.32,0,0,0-2.25,2.25V84Z"/><path class="cls-1" d="M572.55,84c-1.06,2.38-2.64,6.08-3,6.87-.66,1.19-2.11,2.51-5.15,2.51H543.23V3.57a2.89,2.89,0,0,1,2.9-2.65h24.7l-3.17,6.87c-.53,1.19-2,2.64-5,2.64H555a2.15,2.15,0,0,0-2.24,2.25V40.15H567c-1.06,2.38-2.64,6.21-3,7-.66,1.19-2,2.51-5,2.51h-4a2.31,2.31,0,0,0-2.24,2.25V84Z"/><path class="cls-1" d="M637.66.92c6.34,0,12,5.16,12,11.63v23.9c0,9-4.36,15.46-13.47,15.46h-5.68V93.38h-6.74c-2.24,0-2.64-1.32-2.64-2V.92Zm2.91,13.34a5,5,0,0,0-5-4.49h-5V43.06h5a5,5,0,0,0,5-4.49Z"/></g></g></svg>