<svg xmlns="http://www.w3.org/2000/svg" viewBox="0 0 1000 1000"><defs><style>.cls-1{fill:#449af1;}.cls-2{fill:#fff;}</style></defs><g id="Layer_2" data-name="Layer 2"><g id="Layer_1-2" data-name="Layer 1"><rect class="cls-1" width="1000" height="1000"/><path class="cls-2" d="M393,542.79V491.68l-19.91,38.06h-8.15L345,491.68v51.11H330V465.58h16.09l22.84,43.94L392,465.58h16v77.21Z"/><path class="cls-2" d="M449.08,543.88a31.56,31.56,0,0,1-12.39-2.34,27.9,27.9,0,0,1-15.5-15.71,29.89,29.89,0,0,1-2.12-11.2,31.94,31.94,0,0,1,2.06-11.48,28.13,28.13,0,0,1,6-9.46,28.77,28.77,0,0,1,9.52-6.47,31.75,31.75,0,0,1,12.56-2.39,31,31,0,0,1,12.45,2.39,28.76,28.76,0,0,1,9.36,6.42,27.29,27.29,0,0,1,5.87,9.35,31.16,31.16,0,0,1,2,11.09c0,.95,0,1.85-.05,2.72a11.84,11.84,0,0,1-.27,2.18H434.51a16.94,16.94,0,0,0,1.63,6,14.65,14.65,0,0,0,8.05,7.29,15.4,15.4,0,0,0,5.44,1,16.75,16.75,0,0,0,8.21-2.12,11.21,11.21,0,0,0,5.27-5.6L475.62,529a25.44,25.44,0,0,1-10.06,10.72A31.22,31.22,0,0,1,449.08,543.88Zm14.79-34.36a15.14,15.14,0,0,0-4.73-10.28,14.84,14.84,0,0,0-20.17.05,14.89,14.89,0,0,0-3.21,4.46,15.88,15.88,0,0,0-1.47,5.77Z"/><path class="cls-2" d="M511.4,543.88A25.48,25.48,0,0,1,492,535.29a29.47,29.47,0,0,1-5.6-9.41,32.85,32.85,0,0,1-2-11.58,34.06,34.06,0,0,1,1.9-11.53,30.23,30.23,0,0,1,5.28-9.35,24.42,24.42,0,0,1,8-6.31,23,23,0,0,1,10.23-2.28,21.38,21.38,0,0,1,11.25,3,22.15,22.15,0,0,1,7.89,7.94V463.4h14.57v62.65a4.88,4.88,0,0,0,.87,3.26,4.23,4.23,0,0,0,3,1.09v12.39a39.53,39.53,0,0,1-7,.77,10.49,10.49,0,0,1-6.26-1.85,7.58,7.58,0,0,1-2.77-4.9l-.33-3.91a20.79,20.79,0,0,1-8.48,8.21A24.12,24.12,0,0,1,511.4,543.88Zm3.81-12.4a13.73,13.73,0,0,0,4.24-.7,14.85,14.85,0,0,0,4-2,19.06,19.06,0,0,0,3.37-3,12.07,12.07,0,0,0,2.29-3.81V508.32a17.87,17.87,0,0,0-6-7.94,14.36,14.36,0,0,0-8.75-3.15,13.13,13.13,0,0,0-6,1.41,14.25,14.25,0,0,0-4.73,3.86,18.6,18.6,0,0,0-3.05,5.6,20.05,20.05,0,0,0-1.08,6.53,17.92,17.92,0,0,0,1.19,6.63,16.84,16.84,0,0,0,3.32,5.33,15.45,15.45,0,0,0,5,3.59A15,15,0,0,0,515.21,531.48Z"/><path class="cls-2" d="M558.38,477.87V463.4H573v14.47Zm0,64.92v-57H573v57Z"/><path class="cls-2" d="M582.41,514.3A30.94,30.94,0,0,1,584.48,503a27.57,27.57,0,0,1,6-9.35,29.32,29.32,0,0,1,9.46-6.42,31.39,31.39,0,0,1,12.51-2.39q9.35,0,15.93,4a25.69,25.69,0,0,1,9.84,10.55L624,503.75a12.93,12.93,0,0,0-4.9-4.84,14.38,14.38,0,0,0-12.61-.43,14.24,14.24,0,0,0-4.73,3.48,15.91,15.91,0,0,0-3.16,5.38,20.32,20.32,0,0,0-1.14,7,19.41,19.41,0,0,0,1.2,7,17.14,17.14,0,0,0,3.21,5.44,14,14,0,0,0,4.73,3.53,13.51,13.51,0,0,0,5.76,1.25,14,14,0,0,0,7.23-2,11,11,0,0,0,4.62-4.79l14.25,4.35a23.92,23.92,0,0,1-9.68,10.66,30.34,30.34,0,0,1-16.2,4.13A31.39,31.39,0,0,1,600,541.49a28.36,28.36,0,0,1-15.5-15.93A30.52,30.52,0,0,1,582.41,514.3Z"/><path class="cls-2" d="M640.92,542.79l30.45-77.21h12.18l30.35,77.21H698L691,523.54H663.87l-7.07,19.25Zm36.54-61L666.37,513h21.86Z"/><path class="cls-2" d="M754.68,543.88a22.31,22.31,0,0,1-11.64-3,21.3,21.3,0,0,1-7.83-8.1V566H720.64V485.81h12.72v9.79a23.16,23.16,0,0,1,8.16-7.89,22.68,22.68,0,0,1,11.53-2.88,24.35,24.35,0,0,1,10.65,2.34,26.34,26.34,0,0,1,8.43,6.3,29.33,29.33,0,0,1,5.55,9.36,32.23,32.23,0,0,1,2,11.36,36,36,0,0,1-1.85,11.64,29.66,29.66,0,0,1-5.16,9.46,24,24,0,0,1-7.94,6.31A22.44,22.44,0,0,1,754.68,543.88Zm-4.79-12.4a13.13,13.13,0,0,0,6-1.41,14.58,14.58,0,0,0,4.73-3.81,17.79,17.79,0,0,0,3-5.54,19.76,19.76,0,0,0,1.09-6.53,18.61,18.61,0,0,0-1.19-6.69,16.74,16.74,0,0,0-3.32-5.38,15.45,15.45,0,0,0-5-3.59,15,15,0,0,0-6.26-1.3,13.73,13.73,0,0,0-4.24.7,15.17,15.17,0,0,0-4,2,17.42,17.42,0,0,0-3.32,3,12.67,12.67,0,0,0-2.23,3.81v13.37a19.42,19.42,0,0,0,6,8.11A13.66,13.66,0,0,0,749.89,531.48Z"/><path class="cls-2" d="M823.41,543.88a22.31,22.31,0,0,1-11.64-3,21.3,21.3,0,0,1-7.83-8.1V566H789.37V485.81h12.72v9.79a23.25,23.25,0,0,1,8.16-7.89,22.68,22.68,0,0,1,11.53-2.88,24.43,24.43,0,0,1,10.66,2.34,26.41,26.41,0,0,1,8.42,6.3,29.33,29.33,0,0,1,5.55,9.36,32.23,32.23,0,0,1,2,11.36,35.68,35.68,0,0,1-1.85,11.64,29.66,29.66,0,0,1-5.16,9.46,23.93,23.93,0,0,1-7.94,6.31A22.44,22.44,0,0,1,823.41,543.88Zm-4.79-12.4a13.13,13.13,0,0,0,6-1.41,14.48,14.48,0,0,0,4.73-3.81,17.81,17.81,0,0,0,3.05-5.54,20,20,0,0,0,1.08-6.53,18.61,18.61,0,0,0-1.19-6.69,16.74,16.74,0,0,0-3.32-5.38,15.45,15.45,0,0,0-5-3.59,15,15,0,0,0-6.26-1.3,13.73,13.73,0,0,0-4.24.7,15.17,15.17,0,0,0-4,2,17.72,17.72,0,0,0-3.32,3,12.67,12.67,0,0,0-2.23,3.81v13.37a19.42,19.42,0,0,0,6,8.11A13.7,13.7,0,0,0,818.62,531.48Z"/><path class="cls-2" d="M294.73,460.64a17.76,17.76,0,0,1,5.48,13.05v68.73a18.66,18.66,0,0,1-18.58,18.5h-3.17V455.19h3.17A17.88,17.88,0,0,1,294.73,460.64Zm-37-5.45h13.47V560.92H180.58V455.19H194V442a7.9,7.9,0,0,1,8-7.93h47.77a7.9,7.9,0,0,1,8,7.93Zm-87.58,0h3.17V560.92h-3.17a18.64,18.64,0,0,1-18.58-18.5V473.69a18.64,18.64,0,0,1,18.58-18.5Zm34.5-10.27v10.87h42.47V444.92Zm52.34,73a2.57,2.57,0,0,0,.74-1.9V500.12a2.54,2.54,0,0,0-2.65-2.64H236.51V479a2.57,2.57,0,0,0-2.66-2.65H217.93a2.59,2.59,0,0,0-1.91.75,2.55,2.55,0,0,0-.74,1.9v18.5H196.7a2.61,2.61,0,0,0-1.91.74,2.57,2.57,0,0,0-.75,1.9V516a2.54,2.54,0,0,0,.75,1.9,2.58,2.58,0,0,0,1.91.75h18.58v18.5A2.55,2.55,0,0,0,216,539a2.58,2.58,0,0,0,1.91.74h15.92a2.55,2.55,0,0,0,2.66-2.64v-18.5h18.58A2.59,2.59,0,0,0,257,517.88Z"/></g></g></svg>