<svg xmlns="http://www.w3.org/2000/svg" viewBox="0 0 696.85 131.92"><defs><style>.cls-1{fill:#449af1;}</style></defs><g id="Layer_2" data-name="Layer 2"><g id="Layer_1-2" data-name="Layer 1"><path class="cls-1" d="M241.39,108.75V57.64L221.49,95.7h-8.16l-19.9-38.06v51.11h-15V31.54h16.1l22.84,43.94,23-43.94h16v77.21Z"/><path class="cls-1" d="M297.51,109.84a31.61,31.61,0,0,1-12.4-2.34,28,28,0,0,1-15.5-15.71,30.09,30.09,0,0,1-2.12-11.2,31.73,31.73,0,0,1,2.07-11.48,28,28,0,0,1,6-9.46,28.62,28.62,0,0,1,9.51-6.47,31.8,31.8,0,0,1,12.57-2.39,31,31,0,0,1,12.45,2.39,28.72,28.72,0,0,1,9.35,6.42A27.29,27.29,0,0,1,325.29,69a31.17,31.17,0,0,1,2,11.09c0,.95,0,1.85-.06,2.72a11.84,11.84,0,0,1-.27,2.18H282.93a17.15,17.15,0,0,0,1.63,6,14.73,14.73,0,0,0,8.05,7.29,15.4,15.4,0,0,0,5.44,1,16.72,16.72,0,0,0,8.21-2.12,11.27,11.27,0,0,0,5.28-5.6L324,94.94A25.38,25.38,0,0,1,314,105.66,31.16,31.16,0,0,1,297.51,109.84ZM312.3,75.48a15.18,15.18,0,0,0-4.73-10.28,14.87,14.87,0,0,0-20.18,0,15.25,15.25,0,0,0-3.21,4.46,15.68,15.68,0,0,0-1.46,5.77Z"/><path class="cls-1" d="M359.82,109.84A25.56,25.56,0,0,1,349,107.56a25.88,25.88,0,0,1-8.54-6.31,29.47,29.47,0,0,1-5.6-9.41,32.85,32.85,0,0,1-2-11.58,34.3,34.3,0,0,1,1.9-11.53A30.23,30.23,0,0,1,340,59.38a24.46,24.46,0,0,1,8.05-6.31,23,23,0,0,1,10.22-2.28,21.44,21.44,0,0,1,11.26,3,22.12,22.12,0,0,1,7.88,7.94V29.36H392V92a4.88,4.88,0,0,0,.87,3.26,4.24,4.24,0,0,0,3.05,1.09v12.39a39.53,39.53,0,0,1-7,.77,10.51,10.51,0,0,1-6.26-1.85,7.58,7.58,0,0,1-2.77-4.9l-.32-3.91a20.87,20.87,0,0,1-8.49,8.21A24.12,24.12,0,0,1,359.82,109.84Zm3.81-12.4a13.73,13.73,0,0,0,4.24-.7,14.85,14.85,0,0,0,4-2,19.12,19.12,0,0,0,3.38-3,12.22,12.22,0,0,0,2.28-3.81V74.28a17.8,17.8,0,0,0-6-7.94,14.36,14.36,0,0,0-8.75-3.15,13.13,13.13,0,0,0-6,1.41A14.35,14.35,0,0,0,352,68.46a18.57,18.57,0,0,0-3,5.6,19.8,19.8,0,0,0-1.09,6.53,17.92,17.92,0,0,0,1.2,6.63,16.64,16.64,0,0,0,3.31,5.33,15.5,15.5,0,0,0,5,3.59A15,15,0,0,0,363.63,97.44Z"/><path class="cls-1" d="M406.8,43.83V29.36h14.58V43.83Zm0,64.92v-57h14.58v57Z"/><path class="cls-1" d="M430.84,80.26A30.93,30.93,0,0,1,432.9,69a27.57,27.57,0,0,1,6-9.35,29.25,29.25,0,0,1,9.47-6.42,31.31,31.31,0,0,1,12.5-2.39q9.36,0,15.94,4a25.82,25.82,0,0,1,9.84,10.55l-14.25,4.35a12.83,12.83,0,0,0-4.89-4.84,14.4,14.4,0,0,0-12.62-.43,14.34,14.34,0,0,0-4.73,3.48A16.06,16.06,0,0,0,447,73.3a20.09,20.09,0,0,0-1.15,7,19.41,19.41,0,0,0,1.2,7,17.52,17.52,0,0,0,3.21,5.44A14.08,14.08,0,0,0,455,96.19a13.51,13.51,0,0,0,5.76,1.25,14.07,14.07,0,0,0,7.24-2,11,11,0,0,0,4.62-4.79l14.24,4.35a23.89,23.89,0,0,1-9.67,10.66A30.4,30.4,0,0,1,461,109.84a31.39,31.39,0,0,1-12.51-2.39A28.3,28.3,0,0,1,433,91.52,30.32,30.32,0,0,1,430.84,80.26Z"/><path class="cls-1" d="M489.35,108.75,519.8,31.54H532l30.34,77.21H546.44L539.37,89.5H512.29l-7.07,19.25Zm36.54-61L514.79,79h21.86Z"/><path class="cls-1" d="M603.1,109.84a22.31,22.31,0,0,1-11.64-3,21.3,21.3,0,0,1-7.83-8.1v33.17H569.06V51.77h12.73v9.79a23.22,23.22,0,0,1,8.15-7.89,22.71,22.71,0,0,1,11.53-2.88,24.39,24.39,0,0,1,10.66,2.34,26.56,26.56,0,0,1,8.43,6.3,29.5,29.5,0,0,1,5.54,9.36,32.24,32.24,0,0,1,2,11.36,36,36,0,0,1-1.85,11.64,30,30,0,0,1-5.17,9.46,23.93,23.93,0,0,1-7.94,6.31A22.41,22.41,0,0,1,603.1,109.84Zm-4.78-12.4a13.12,13.12,0,0,0,6-1.41,14.48,14.48,0,0,0,4.73-3.81,17.81,17.81,0,0,0,3-5.54,20,20,0,0,0,1.09-6.53,18.4,18.4,0,0,0-1.2-6.69,16.57,16.57,0,0,0-3.32-5.38,15.45,15.45,0,0,0-5-3.59,15,15,0,0,0-6.25-1.3,13.64,13.64,0,0,0-4.24.7,15.08,15.08,0,0,0-4,2,17.72,17.72,0,0,0-3.32,3,12.67,12.67,0,0,0-2.23,3.81V86.13a19.35,19.35,0,0,0,6,8.11A13.66,13.66,0,0,0,598.32,97.44Z"/><path class="cls-1" d="M671.83,109.84a22.25,22.25,0,0,1-11.63-3,21.15,21.15,0,0,1-7.83-8.1v33.17H637.79V51.77h12.73v9.79a23.22,23.22,0,0,1,8.15-7.89,22.71,22.71,0,0,1,11.53-2.88,24.39,24.39,0,0,1,10.66,2.34,26.56,26.56,0,0,1,8.43,6.3,29.5,29.5,0,0,1,5.54,9.36,32,32,0,0,1,2,11.36A36,36,0,0,1,695,91.79a30,30,0,0,1-5.17,9.46,23.93,23.93,0,0,1-7.94,6.31A22.41,22.41,0,0,1,671.83,109.84Zm-4.78-12.4a13.09,13.09,0,0,0,6-1.41,14.48,14.48,0,0,0,4.73-3.81,17.81,17.81,0,0,0,3.05-5.54A20,20,0,0,0,682,80.15a18.4,18.4,0,0,0-1.2-6.69,16.57,16.57,0,0,0-3.32-5.38,15.45,15.45,0,0,0-5-3.59,15,15,0,0,0-6.25-1.3,13.69,13.69,0,0,0-4.24.7,15.23,15.23,0,0,0-4,2,17.36,17.36,0,0,0-3.31,3,12.46,12.46,0,0,0-2.23,3.81V86.13a19.25,19.25,0,0,0,6,8.11A13.66,13.66,0,0,0,667.05,97.44Z"/><path class="cls-1" d="M143.16,26.6a17.75,17.75,0,0,1,5.47,13v68.73a18.64,18.64,0,0,1-18.58,18.5h-3.17V21.15h3.17A17.9,17.9,0,0,1,143.16,26.6Zm-37-5.45h13.46V126.88H29V21.15H42.47V7.93a7.65,7.65,0,0,1,2.32-5.62A7.71,7.71,0,0,1,50.43,0H98.2a7.71,7.71,0,0,1,5.64,2.31,7.66,7.66,0,0,1,2.33,5.62Zm-87.59,0h3.17V126.88H18.58a17.94,17.94,0,0,1-13.11-5.45A17.78,17.78,0,0,1,0,108.38V39.65a17.75,17.75,0,0,1,5.47-13A17.9,17.9,0,0,1,18.58,21.15Zm34.5-10.27V21.75H95.55V10.88Zm52.34,73a2.54,2.54,0,0,0,.75-1.9V66.08a2.57,2.57,0,0,0-.75-1.9,2.62,2.62,0,0,0-1.91-.74H84.93V44.94a2.55,2.55,0,0,0-2.65-2.65H66.35a2.57,2.57,0,0,0-2.65,2.65v18.5H45.12a2.62,2.62,0,0,0-1.91.74,2.56,2.56,0,0,0-.74,1.9V81.94a2.53,2.53,0,0,0,.74,1.9,2.59,2.59,0,0,0,1.91.75H63.7v18.5a2.55,2.55,0,0,0,2.65,2.64H82.28a2.54,2.54,0,0,0,2.65-2.64V84.59h18.58A2.59,2.59,0,0,0,105.42,83.84Z"/></g></g></svg>