<svg xmlns="http://www.w3.org/2000/svg" viewBox="0 0 1000 1000"><defs><style>.cls-1{fill:#131123;}.cls-2{fill:#fff;}.cls-3{fill:#f55;}.cls-4{fill:#ccc;}.cls-5{fill:#ff4949;}.cls-6{fill:#ff8080;}.cls-7{fill:#026aa7;}.cls-8{fill:#0f4392;}.cls-9{fill:#0079bf;}</style></defs><g id="Layer_2" data-name="Layer 2"><g id="Layer_1-2" data-name="Layer 1"><rect class="cls-1" width="1000" height="1000"/><path class="cls-2" d="M370.13,500.27l-.05-50.6-18.2,0,0-11.67,49.67,0v11.67l-18.11,0,.05,50.6Z"/><path class="cls-2" d="M462.08,500.18l0-26.23-29.4,0,0,26.23H419.41L419.36,438l13.25,0,0,24.46,29.4,0,0-24.45,13.35,0,.06,62.27Z"/><path class="cls-2" d="M497,475.22l0-37.34h13.44l0,37c0,8.68,5.05,14.65,14.67,14.64s14.56-6,14.55-14.67l0-37h13.54l0,37.34c0,15.41-9.12,26.06-28.07,26.07S497,490.63,497,475.22Z"/><path class="cls-2" d="M617.79,500l-29.73-40.58,0,40.61H574.84l-.05-62.27h13.63l28.88,39.09,0-39.12h13.26l.06,62.27Z"/><path class="cls-2" d="M652.23,500l-.06-62.27,24.56,0c19.51,0,33,12.38,33.07,31,0,18.86-13.51,31.19-32.92,31.21Zm44-31.23c0-10.92-6.74-19.41-19.44-19.39H665.44l0,38.92h11.29C689.1,488.3,696.27,479.43,696.27,468.78Z"/><path class="cls-2" d="M728.59,499.93l-.06-62.26,44.07,0V449.3l-30.81,0v13.07l30.16,0V474l-30.16,0,0,14.19,30.8,0v11.67Z"/><path class="cls-2" d="M827.55,499.84,815.3,477.73h-9.71l0,22.12-13.26,0-.06-62.27,29.13,0c13,0,21,8.48,21,20.05,0,10.92-7,16.91-13.7,18.5l14.11,23.7Zm1.26-42.29c0-5.13-4-8.3-9.25-8.3l-14,0,0,16.8h14C824.81,466.05,828.82,462.87,828.81,457.55Z"/><path class="cls-2" d="M366.19,573.55v-26h-9.38v2.79a1,1,0,0,1-.38.78,1.46,1.46,0,0,1-1.8,0,1,1,0,0,1-.38-.78V546.5a1,1,0,0,1,.38-.81,1.26,1.26,0,0,1,.85-.33h23.93a1.32,1.32,0,0,1,.9.33,1,1,0,0,1,.38.81v3.88a.93.93,0,0,1-.38.78,1.35,1.35,0,0,1-.9.31,1.37,1.37,0,0,1-.9-.31,1,1,0,0,1-.38-.78v-2.79h-9.38v26a1,1,0,0,1-.38.79,1.5,1.5,0,0,1-1.8,0A1,1,0,0,1,366.19,573.55Z"/><path class="cls-2" d="M426.61,571.94h1.75a1,1,0,0,1,.78.33,1.14,1.14,0,0,1,.31.81,1.06,1.06,0,0,1-1.09,1.09h-1.75a3.69,3.69,0,0,1-2.87-.9,3,3,0,0,1-.78-2V560.81H405.57v12.74a1,1,0,0,1-.38.79,1.5,1.5,0,0,1-1.8,0,1,1,0,0,1-.38-.79v-26h-2.75a1.1,1.1,0,0,1-.78-.31,1.06,1.06,0,0,1-.31-.78,1.12,1.12,0,0,1,.31-.81,1,1,0,0,1,.78-.33h4.08a1.26,1.26,0,0,1,.85.33,1,1,0,0,1,.38.81v12.08H423v-11h-2.8a1.06,1.06,0,0,1-1.09-1.09,1.17,1.17,0,0,1,.31-.81,1,1,0,0,1,.78-.33h4.13a1.26,1.26,0,0,1,.85.33,1,1,0,0,1,.38.81v24.73C425.52,571.71,425.88,571.94,426.61,571.94Z"/><path class="cls-2" d="M454.56,563.13v10.42a1,1,0,0,1-.37.79,1.44,1.44,0,0,1-.9.3,1.4,1.4,0,0,1-.9-.3,1,1,0,0,1-.38-.79v-26h-2.85a1.06,1.06,0,0,1-1.09-1.09,1.17,1.17,0,0,1,.31-.81,1,1,0,0,1,.78-.33H464q10.38,0,10.38,8.86c0,4.27-1.88,7-5.64,8.25L474.89,573a.88.88,0,0,1,.1.43,1,1,0,0,1-.55.95,2.1,2.1,0,0,1-1,.28.93.93,0,0,1-.76-.52L466.22,563c-.82.07-1.55.1-2.18.1Zm0-15.54V561H464q7.81,0,7.82-6.73,0-3.56-2-5.09T464,547.59Z"/><path class="cls-2" d="M500.22,570.43a16.22,16.22,0,0,1,0-21.33,14.72,14.72,0,0,1,20.61,0,16.21,16.21,0,0,1,0,21.35,14.74,14.74,0,0,1-20.61,0ZM502,550.69a14.23,14.23,0,0,0,0,18.15,11.85,11.85,0,0,0,17,0,14.23,14.23,0,0,0,0-18.15,11.85,11.85,0,0,0-17,0Z"/><path class="cls-2" d="M551.23,573.55a1,1,0,0,1-.38.79,1.5,1.5,0,0,1-1.8,0,1,1,0,0,1-.38-.79v-26h-2.61a1.35,1.35,0,0,1-.9-.33,1.06,1.06,0,0,1-.38-.81,1,1,0,0,1,.36-.78,1.33,1.33,0,0,1,.92-.31h3.7a1.51,1.51,0,0,1,1.18.47l18.58,23.89V547.59h-2.8a1.06,1.06,0,0,1-1.09-1.09,1.17,1.17,0,0,1,.31-.81,1,1,0,0,1,.78-.33h8.15a1,1,0,0,1,.79.33,1.16,1.16,0,0,1,.3.81,1.09,1.09,0,0,1-.3.78,1.1,1.1,0,0,1-.79.31h-2.79v25.82a1.09,1.09,0,0,1-1.23,1.23,1.36,1.36,0,0,1-1.14-.66l-18.48-23.79Z"/><path class="cls-2" d="M595.77,545.36H618c.83,0,1.24.38,1.24,1.14v3.88a1,1,0,0,1-.38.78,1.37,1.37,0,0,1-.9.31,1.35,1.35,0,0,1-.9-.31.93.93,0,0,1-.38-.78v-2.79H601.13v11h13.36v-1.75a1,1,0,0,1,.35-.78,1.4,1.4,0,0,1,1.76,0,1,1,0,0,1,.35.78v5.78a1,1,0,0,1-.35.78,1.4,1.4,0,0,1-1.76,0,1,1,0,0,1-.35-.78v-1.8H601.13v11.13H618a1.38,1.38,0,0,1,.92.31,1,1,0,0,1,.36.78,1,1,0,0,1-.38.81,1.33,1.33,0,0,1-.9.33h-18.2c-.79,0-1.18-.35-1.18-1V547.59h-2.8a1.08,1.08,0,0,1-.78-.31,1.06,1.06,0,0,1-.31-.78,1.12,1.12,0,0,1,.31-.81A1,1,0,0,1,595.77,545.36Z"/><path class="cls-2" d="M678.77,545.55a1,1,0,0,1,.59-.55,2.39,2.39,0,0,1,.61-.11,1.07,1.07,0,0,1,1.09.66l3.84,9.24,3.89-9.29a.87.87,0,0,1,.8-.61,2.43,2.43,0,0,1,.9.14,1,1,0,0,1,.57.59,1,1,0,0,1,0,.88l-4.79,11.27,5.26,12.89L702,545.5a.87.87,0,0,1,.8-.61,1.43,1.43,0,0,1,1.47.75,1,1,0,0,1,0,.86l-11.51,27.34a1.35,1.35,0,0,1-2.47,0L684.9,561l-5.4,12.89a1.32,1.32,0,0,1-2.42,0L665.47,546.4a1,1,0,0,1-.09-.42,1,1,0,0,1,.8-1,1.78,1.78,0,0,1,.53-.09,1.08,1.08,0,0,1,1.09.66l10.56,25.07,5.21-12.85-4.83-11.37A.91.91,0,0,1,678.77,545.55Z"/><path class="cls-2" d="M730.67,545.36h4.22a1.05,1.05,0,0,1,1,.57L749.34,573a.88.88,0,0,1,.1.43,1.07,1.07,0,0,1-.76,1.09,1.72,1.72,0,0,1-.52.09,1.08,1.08,0,0,1-1.09-.61l-4.41-8.91H726.79L722.38,574c-.28.63-.82.8-1.61.52a1.05,1.05,0,0,1-.76-1,1.06,1.06,0,0,1,.1-.43l12.6-25.49h-2a1.06,1.06,0,0,1-1.09-1.09,1.17,1.17,0,0,1,.31-.81A1,1,0,0,1,730.67,545.36Zm4,3.36-6.87,14.22h13.79Z"/><path class="cls-2" d="M773.46,563.13v10.42a1,1,0,0,1-.38.79,1.4,1.4,0,0,1-.9.3,1.44,1.44,0,0,1-.9-.3,1,1,0,0,1-.38-.79v-26h-2.84a1.08,1.08,0,0,1-.78-.31,1.06,1.06,0,0,1-.31-.78,1.12,1.12,0,0,1,.31-.81,1,1,0,0,1,.78-.33h14.88q10.38,0,10.38,8.86c0,4.27-1.88,7-5.64,8.25L793.79,573a1.06,1.06,0,0,1-.45,1.38,2.13,2.13,0,0,1-1,.28.93.93,0,0,1-.76-.52L785.12,563c-.82.07-1.55.1-2.18.1Zm0-15.54V561h9.48q7.81,0,7.82-6.73,0-3.56-2-5.09t-5.85-1.54Z"/><path class="cls-2" d="M817.77,567.63v3.27a18.67,18.67,0,0,0,8.05,1.52c3.26,0,5.71-.52,7.35-1.54a4.87,4.87,0,0,0,2.46-4.36,4.56,4.56,0,0,0-2.32-4.2,24.53,24.53,0,0,0-7.39-2.34,22.64,22.64,0,0,1-7.61-2.58,5.58,5.58,0,0,1-2.53-5.07q0-7.44,11-7.44a19.83,19.83,0,0,1,9.71,2.13,1.17,1.17,0,0,1,.71,1v3.89a.93.93,0,0,1-.38.78,1.35,1.35,0,0,1-.9.31,1.39,1.39,0,0,1-.9-.31,1,1,0,0,1-.38-.78v-3.27a18.24,18.24,0,0,0-7.74-1.52q-4.49,0-6.54,1.28a4.31,4.31,0,0,0-2.06,3.94,4,4,0,0,0,2.65,3.74,20.66,20.66,0,0,0,4.86,1.54c2,.43,3.48.75,4.33,1a24.19,24.19,0,0,1,3,1,8.9,8.9,0,0,1,2.65,1.54,7.65,7.65,0,0,1,1.66,2.25,7,7,0,0,1,.71,3.2,6.81,6.81,0,0,1-3.1,5.87c-2.07,1.46-5,2.18-8.89,2.18a30,30,0,0,1-5.73-.59,13.42,13.42,0,0,1-4.64-1.59,1.07,1.07,0,0,1-.62-.94v-3.89a1,1,0,0,1,.38-.78,1.46,1.46,0,0,1,1.8,0A1,1,0,0,1,817.77,567.63Z"/><rect class="cls-3" x="175.28" y="540.74" width="19" height="26.23" transform="translate(-337.52 292.88) rotate(-45)"/><polyline class="cls-4" points="200.74 537.69 212.24 549.19 320.06 441.55 320.06 418.53"/><polyline class="cls-2" points="320.06 418.53 297.33 418.53 189.34 526.29 200.84 537.79 320.06 418.53"/><rect class="cls-5" x="189.55" y="518.14" width="13.22" height="48.65" transform="translate(-326.13 297.6) rotate(-45)"/><path class="cls-6" d="M178.34,579.55l-19.26-19.26a6.54,6.54,0,0,1,0-9.24l.11-.11a6.54,6.54,0,0,1,9.24,0l19.26,19.26a6.55,6.55,0,0,1,0,9.25l-.11.1A6.52,6.52,0,0,1,178.34,579.55Z"/><rect class="cls-7" x="279.36" y="544.34" width="26.23" height="19" transform="translate(-305.96 369.02) rotate(-45)"/><polyline class="cls-2" points="276.31 537.87 287.8 526.37 180.17 418.55 157.15 418.55"/><polyline class="cls-4" points="157.15 418.55 157.15 441.28 264.91 549.27 276.4 537.77 157.15 418.55"/><rect class="cls-8" x="256.76" y="535.84" width="48.65" height="13.22" transform="translate(-301.24 357.63) rotate(-45)"/><path class="cls-9" d="M318.17,560.27l-19.26,19.26a6.52,6.52,0,0,1-9.24,0l-.11-.1a6.55,6.55,0,0,1,0-9.25l19.26-19.26a6.54,6.54,0,0,1,9.24,0l.11.11A6.54,6.54,0,0,1,318.17,560.27Z"/></g></g></svg>